<?xml version="1.0" encoding="utf-8"?>
<!-- Generator: Adobe Illustrator 23.0.5, SVG Export Plug-In . SVG Version: 6.00 Build 0)  -->
<svg version="1.1" id="Layer_1" xmlns="http://www.w3.org/2000/svg" xmlns:xlink="http://www.w3.org/1999/xlink" x="0px" y="0px"
	 viewBox="0 0 600 400" style="enable-background:new 0 0 600 400;" xml:space="preserve">
<style type="text/css">
	.st0{fill:#A2A2A1;}
	.st1{fill:#919090;}
	.st2{fill:#F3F4F5;}
</style>
<g id="IDK">
	<path class="st0" d="M0,35.27v323.7c0,13.41,10.89,24.28,24.31,24.25l109.95-0.23l78.23-0.16h1.56
		c9.54-0.01,17.28-7.73,17.35-17.27c0-0.11,0-0.2,0-0.31c0.11-17.12,0.32-42.06,0.6-52.17c0.08-2.67,0.16-4.31,0.24-4.51
		c4.67-10.6,25.41-57.02,32.5-62.87c8.01-6.59,94.53-164.96,94.53-164.96L29.23,11.52C14.16,8.37,0,19.86,0,35.27z"/>
	<path class="st1" d="M224.59,376.69"/>
</g>
<g>
	<path class="st2" d="M600,35.91v322.51c0,13.69-10.86,24.79-24.27,24.79H395.48c-13.4,0-24.27-11.1-24.27-24.79v-24.07
		c0-13.69-10.86-24.79-24.27-24.79H158.53c-13.4,0-24.27-11.1-24.27-24.79V159.23c0-11.03,7.14-20.74,17.52-23.81l207.5-61.33
		L569.01,12.1C584.52,7.52,600,19.41,600,35.91z"/>
</g>
</svg>
